<?xml version="1.0" standalone="no"?>
<svg version="1.0" xmlns="http://www.w3.org/2000/svg"
 width="500.000000pt" height="500.000000pt" viewBox="0 0 500.000000 500.000000"
 preserveAspectRatio="xMidYMid meet">
<g transform="translate(0.000000,500.000000) scale(0.100000,-0.100000)"
fill="#000000" stroke="none">
<path d="M2438 4857 c-140 -96 -268 -225 -350 -351 -21 -33 -40 -62 -43 -64
-2 -2 -30 18 -62 45 -82 71 -173 129 -267 174 -132 61 -132 61 -161 -5 -56
-126 -95 -295 -95 -408 0 -32 -3 -58 -6 -58 -3 0 -34 8 -68 17 -79 23 -439 24
-526 2 l-55 -14 -17 -80 c-24 -118 -23 -352 2 -475 11 -52 20 -96 20 -97 0 -2
-27 -3 -59 -3 -152 0 -461 -91 -461 -137 0 -25 83 -194 130 -264 24 -35 65
-90 91 -121 27 -31 49 -58 49 -61 0 -2 -35 -27 -77 -55 -43 -28 -111 -81 -150
-117 -80 -73 -223 -255 -223 -284 0 -59 228 -309 365 -400 44 -29 82 -55 84
-56 2 -2 -19 -30 -47 -62 -71 -83 -125 -166 -171 -263 -65 -138 -65 -135 15
-171 96 -44 242 -79 357 -86 81 -5 97 -9 92 -21 -36 -94 -46 -417 -17 -557
l17 -80 85 -18 c114 -24 334 -25 453 -3 48 9 93 19 101 22 10 4 14 -16 19 -88
7 -112 46 -273 87 -364 29 -64 31 -66 60 -61 76 16 286 139 382 226 27 24 50
42 52 40 2 -2 28 -40 57 -84 29 -44 96 -123 149 -175 91 -92 222 -190 252
-190 28 0 163 104 253 194 50 50 115 127 144 171 29 44 54 81 56 83 2 2 36
-24 77 -58 40 -34 109 -83 153 -109 76 -45 200 -101 225 -101 17 0 67 118 95
227 14 54 29 142 32 196 5 76 9 97 19 93 8 -3 53 -13 101 -22 106 -20 406 -15
488 8 l50 14 18 85 c22 107 18 411 -7 499 -10 36 -12 56 -5 61 6 3 50 9 98 12
159 12 411 93 411 133 0 26 -82 194 -130 265 -24 35 -65 90 -93 122 -27 32
-48 60 -46 62 2 1 40 27 84 56 138 92 365 340 365 400 0 28 -115 177 -205 265
-45 44 -118 105 -161 133 -44 29 -81 54 -82 56 -2 2 22 34 53 70 31 37 72 92
92 122 41 64 109 206 119 246 6 25 3 29 -50 52 -123 55 -299 95 -413 95 -47 0
-54 2 -49 16 37 96 47 418 18 559 l-17 80 -55 13 c-30 7 -129 16 -220 19 -156
5 -248 -3 -356 -33 -20 -5 -21 -1 -27 88 -7 112 -46 273 -87 364 -35 78 -33
78 -167 14 -96 -45 -185 -103 -266 -173 -32 -27 -60 -47 -62 -45 -3 2 -22 31
-43 64 -56 86 -154 197 -230 260 -82 68 -166 124 -184 124 -7 -1 -34 -15 -60
-33z m13 -88 c-25 -89 -47 -231 -57 -354 -6 -85 -9 -93 -49 -150 -24 -33 -55
-85 -70 -115 -15 -30 -29 -57 -30 -58 -2 -2 -30 14 -63 37 l-60 40 5 48 c20
202 114 401 262 556 41 42 76 76 78 74 2 -3 -5 -38 -16 -78z m222 -24 c142
-122 256 -280 318 -439 l27 -71 -96 -50 c-54 -27 -112 -60 -130 -73 -22 -16
-32 -19 -32 -10 0 47 -24 199 -46 287 -31 124 -76 245 -138 370 l-46 92 31
-18 c17 -10 67 -50 112 -88z m-139 -60 c37 -159 70 -335 63 -341 -2 -3 -21 16
-41 41 -21 25 -45 45 -54 45 -9 0 -33 -17 -54 -37 l-39 -38 6 75 c12 146 66
423 80 408 2 -1 19 -70 39 -153z m122 -168 c37 -108 74 -273 74 -333 l0 -38
-36 60 c-19 32 -42 67 -51 76 -9 10 -22 57 -29 107 -7 50 -27 153 -44 228 -17
76 -33 149 -36 163 -7 43 85 -158 122 -263z m-342 211 c-5 -7 -22 -33 -40 -58
-74 -105 -148 -294 -161 -411 -8 -83 -11 -85 -76 -53 l-56 27 25 66 c50 133
129 254 248 379 58 60 75 75 60 50z m-610 -213 c40 -66 88 -147 106 -179 l33
-59 -41 6 c-38 7 -43 5 -65 -25 -13 -18 -37 -57 -53 -85 -16 -29 -32 -53 -35
-53 -10 0 -50 145 -66 242 -15 91 -13 260 3 302 7 17 8 17 26 -5 10 -13 51
-78 92 -144z m205 5 c42 -31 86 -68 99 -82 l22 -25 -30 -73 c-16 -40 -30 -79
-30 -86 0 -18 -6 -17 -61 1 -40 14 -48 22 -73 73 -32 66 -112 201 -168 284
-21 31 -38 60 -38 63 0 13 208 -102 279 -155z m1486 113 c-8 -58 -78 -336 -94
-377 l-12 -29 -27 31 -27 32 -65 -14 c-36 -8 -78 -19 -94 -25 -16 -7 -31 -9
-33 -7 -10 9 73 149 138 234 59 79 188 202 212 202 5 0 6 -19 2 -47z m-150
-47 c-61 -62 -130 -157 -189 -259 -15 -27 -29 -47 -31 -45 -2 2 -15 32 -30 68
l-26 65 50 46 c54 51 156 121 236 163 27 14 50 26 51 26 1 0 -27 -29 -61 -64z
m242 -115 c13 -53 27 -139 30 -191 l5 -95 -86 -36 -86 -36 -23 40 -24 39 34
112 c18 61 42 154 53 206 34 160 30 152 52 101 11 -24 31 -87 45 -140z m-1899
-229 c23 -93 25 -112 13 -106 -9 3 -40 15 -68 26 l-53 21 0 62 c0 72 13 149
43 260 l22 80 7 -115 c5 -70 18 -159 36 -228z m945 -33 c9 -62 19 -143 23
-178 l6 -65 -25 17 c-36 23 -42 22 -97 -18 -44 -33 -48 -34 -63 -17 -13 14
-14 29 -6 97 15 125 48 231 97 315 l26 45 12 -41 c6 -22 19 -92 27 -155z m81
78 c30 -40 71 -102 91 -139 l37 -68 -68 -75 c-54 -59 -71 -72 -80 -62 -7 6
-17 65 -23 129 -6 65 -18 155 -26 200 -19 108 -19 114 0 98 8 -6 39 -44 69
-83z m-209 -14 c-27 -67 -55 -195 -55 -250 l0 -38 -46 47 -47 46 39 71 c34 63
117 181 128 181 2 0 -7 -26 -19 -57z m-465 -50 c92 -30 202 -88 280 -148 61
-47 150 -142 150 -160 0 -6 -21 -31 -46 -55 -25 -25 -58 -64 -74 -88 l-28 -43
-46 88 c-63 121 -157 243 -273 352 -106 102 -107 101 37 54z m1199 -45 c-33
-46 -89 -142 -124 -214 -45 -91 -72 -134 -88 -141 -13 -6 -50 -32 -81 -58 -32
-26 -59 -45 -60 -43 -1 2 -18 25 -36 51 l-34 48 28 55 c65 123 178 243 292
310 35 21 148 72 161 74 1 0 -25 -37 -58 -82z m76 35 c-3 -16 -17 -91 -31
-168 -29 -165 -53 -257 -65 -249 -5 2 -13 23 -19 45 -13 48 -28 56 -70 34 -18
-9 -34 -14 -36 -12 -15 15 197 377 221 377 2 0 2 -12 0 -27z m-1447 -81 c6
-45 32 -146 58 -223 44 -133 46 -143 36 -192 -6 -29 -14 -75 -17 -103 l-6 -50
-52 10 c-29 6 -57 14 -63 18 -16 11 -52 150 -59 233 -4 39 -2 108 5 154 12 88
67 258 79 244 4 -4 13 -45 19 -91z m47 55 c140 -200 220 -326 211 -334 -2 -2
-22 5 -45 16 -22 12 -45 21 -50 21 -6 0 -19 -19 -29 -42 l-19 -43 -22 60 c-45
119 -100 366 -82 365 3 -1 19 -20 36 -43z m1504 -67 c74 -147 104 -273 99
-425 l-3 -100 -80 -6 c-44 -3 -99 -9 -122 -13 l-43 -8 24 64 c46 123 60 219
61 416 0 205 -2 203 64 72z m-1909 60 c75 -20 230 -82 230 -93 0 -2 -11 -30
-24 -63 -20 -51 -31 -91 -52 -192 -4 -21 -8 -20 -72 32 -144 116 -300 201
-506 276 l-128 47 58 11 c33 6 138 9 234 8 143 -3 191 -7 260 -26z m1605 18
c-99 -56 -218 -182 -275 -291 -18 -34 -34 -64 -36 -66 -4 -4 -74 69 -74 78 0
15 97 115 153 158 61 47 217 133 240 133 7 0 3 -6 -8 -12z m863 -4 c-146 -26
-308 -98 -418 -185 -28 -22 -53 -39 -54 -37 -1 1 -11 25 -22 53 -10 27 -20 53
-22 57 -5 10 81 51 159 77 108 35 197 49 319 49 l115 0 -77 -14z m-1952 -76
c120 -122 208 -243 249 -342 l15 -36 -62 46 c-45 33 -71 61 -93 102 -34 64
-102 168 -164 255 -23 31 -38 57 -34 57 5 0 45 -37 89 -82z m2204 64 c0 -4
-33 -27 -74 -50 -82 -47 -189 -126 -279 -208 -54 -48 -65 -54 -130 -64 -40 -7
-101 -21 -135 -32 -35 -11 -66 -17 -69 -15 -2 3 -11 34 -18 69 -15 72 -20 64
85 137 110 77 243 132 375 156 78 15 245 19 245 7z m-904 -329 c-16 -107 -54
-243 -68 -243 -4 0 -8 15 -8 33 0 17 -4 46 -9 63 -7 24 -3 52 15 115 14 46 34
135 45 199 11 63 23 126 27 140 14 50 13 -209 -2 -307z m898 260 c-53 -92
-173 -279 -214 -333 l-42 -55 2 60 c1 33 2 66 1 73 -1 8 -21 12 -63 12 l-63 0
45 40 c83 73 184 148 269 199 46 28 86 51 89 51 2 0 -8 -21 -24 -47z m-3111
-67 c73 -45 160 -102 193 -127 l59 -44 -67 -3 -68 -3 0 -62 -1 -62 -39 45
c-76 85 -178 225 -216 294 -43 80 -55 83 139 -38z m-26 73 c174 -61 426 -200
488 -269 l20 -23 -21 7 c-12 4 -53 13 -92 20 -59 11 -82 22 -153 74 -46 33
-142 97 -213 141 -72 45 -127 81 -124 81 4 0 46 -14 95 -31z m3217 -239 c1
-185 -2 -213 -22 -290 -22 -79 -84 -230 -96 -230 -2 0 -24 8 -48 18 -39 17
-125 41 -201 57 l-29 6 45 52 c113 133 231 350 298 546 31 93 35 99 43 74 5
-16 10 -120 10 -233z m-3347 193 c44 -81 119 -184 202 -278 58 -67 71 -88 76
-125 4 -25 17 -85 31 -134 13 -49 22 -91 20 -94 -3 -2 -27 -8 -53 -13 -26 -5
-55 -12 -64 -14 -41 -13 -190 246 -230 400 -22 86 -39 315 -23 315 5 0 24 -26
41 -57z m3262 -60 c-61 -173 -144 -330 -244 -458 -50 -65 -51 -64 -30 15 8 30
15 67 15 81 0 15 28 64 71 124 38 55 102 150 141 212 38 62 72 113 74 113 2 0
-10 -39 -27 -87z m-2458 39 c-30 -102 -21 -292 19 -407 l19 -55 -54 0 c-50 0
-55 2 -61 26 -10 41 2 244 19 304 20 71 58 173 63 168 2 -3 0 -19 -5 -36z
m994 -198 c70 -71 117 -147 153 -242 33 -87 37 -239 9 -319 -10 -29 -24 -53
-30 -53 -18 1 -138 27 -142 31 -1 2 1 31 7 64 5 33 8 116 5 185 -6 143 -27
229 -87 358 l-39 83 32 -23 c18 -12 59 -50 92 -84z m-202 15 c-13 -56 -17
-123 -18 -279 0 -113 3 -230 7 -262 l8 -56 -63 -14 c-34 -8 -65 -13 -69 -11
-4 2 -16 30 -25 61 -13 42 -18 92 -18 187 0 151 22 236 85 333 36 55 99 126
106 119 2 -2 -4 -37 -13 -78z m76 -46 c36 -175 52 -411 35 -515 -6 -37 -8 -38
-49 -38 -40 0 -43 2 -49 33 -3 17 -8 115 -12 217 -6 180 -2 246 27 381 14 66
21 54 48 -78z m-1688 -82 c37 -112 106 -237 167 -303 14 -15 24 -29 21 -31 -2
-2 -29 -13 -59 -26 -65 -26 -63 -27 -109 83 -43 105 -71 254 -70 378 l1 103
14 -69 c7 -38 23 -98 35 -135z m1775 -46 c14 -53 19 -104 19 -210 0 -162 -8
-215 -33 -215 -15 0 -17 18 -18 188 0 176 -3 203 -39 402 -9 46 52 -94 71
-165z m-300 94 c-54 -102 -69 -175 -63 -309 3 -75 12 -137 25 -178 l20 -63
-36 -14 c-19 -9 -39 -12 -43 -8 -17 18 -51 141 -56 202 -7 87 10 165 57 259
32 63 119 184 127 178 2 -1 -13 -31 -31 -67z m725 -28 c-24 -107 -75 -263
-101 -306 -10 -16 -34 -44 -52 -62 l-33 -32 0 77 c0 42 -3 95 -7 118 -7 35 -3
48 30 105 35 61 167 207 178 197 2 -3 -4 -47 -15 -97z m-1671 75 c41 -8 100
-22 130 -33 l55 -19 5 -98 c6 -111 -2 -124 -49 -85 -16 13 -60 49 -98 80 -37
31 -103 82 -147 113 l-78 56 53 0 c30 -1 88 -7 129 -14z m619 -61 c27 -41 70
-118 97 -172 39 -80 49 -111 54 -170 l6 -73 -56 53 c-30 29 -71 65 -90 79 -30
21 -38 37 -53 94 -23 95 -31 165 -23 218 4 26 9 46 12 46 2 0 26 -34 53 -75z
m70 32 c29 -18 73 -50 97 -72 l43 -40 -28 -81 -28 -82 -37 77 c-34 68 -81 151
-125 221 -15 23 -15 24 4 17 11 -5 44 -22 74 -40z m1601 1 c-47 -24 -113 -64
-147 -90 -34 -27 -64 -48 -68 -48 -3 0 -5 26 -3 57 l3 57 55 19 c56 19 175 44
220 46 15 1 -7 -15 -60 -41z m177 28 c-19 -49 -245 -338 -258 -330 -5 3 -9 16
-9 30 0 28 -10 34 -80 43 -28 3 -51 9 -50 14 0 4 0 15 0 25 0 39 208 174 330
213 68 22 73 23 67 5z m-2614 -38 c132 -88 281 -211 270 -222 -4 -3 -17 -6
-30 -6 -27 0 -33 -11 -42 -83 -6 -48 -8 -52 -31 -49 -53 6 -184 206 -224 341
-9 30 -16 56 -16 58 0 8 16 0 73 -39z m1702 -33 c-25 -31 -54 -74 -65 -95 -11
-22 -24 -40 -28 -40 -4 0 -13 14 -20 32 -11 30 -10 34 16 61 27 29 121 96 135
97 4 0 -13 -25 -38 -55z m179 3 c14 -48 36 -167 36 -194 0 -7 -36 -30 -81 -52
-44 -22 -78 -35 -76 -29 20 52 68 214 78 265 7 34 16 62 21 62 4 0 14 -24 22
-52z m728 -159 c-11 -52 -27 -111 -35 -131 l-16 -38 -85 -1 c-48 -1 -92 -2
-98 -3 -31 -2 -12 36 62 124 44 52 104 129 132 171 l53 77 3 -53 c2 -29 -6
-95 -16 -146z m-1903 -34 c6 -21 9 -41 7 -43 -2 -2 -21 4 -41 12 -37 16 -37
16 -31 63 4 27 12 73 18 103 l12 55 12 -75 c6 -42 17 -93 23 -115z m-649 -60
c28 -36 50 -68 50 -71 0 -2 -25 -4 -56 -4 -54 0 -55 1 -71 38 -17 41 -53 203
-53 242 0 17 13 -1 40 -57 22 -46 63 -112 90 -148z m550 29 c93 -28 172 -74
236 -138 56 -56 124 -165 124 -198 0 -11 -87 -68 -116 -76 -5 -1 -27 22 -48
52 -54 79 -191 206 -274 255 -39 24 -104 55 -144 71 -123 46 -118 43 -73 51
62 12 234 2 295 -17z m1490 10 c-152 -40 -286 -139 -377 -278 -25 -39 -48 -73
-49 -74 -7 -11 -74 24 -74 38 0 29 74 133 129 182 95 86 250 146 376 147 l50
0 -55 -15z m119 -52 c-104 -68 -200 -154 -297 -265 -46 -53 -89 -103 -96 -112
-11 -15 -17 -13 -63 18 -29 19 -58 37 -64 39 -8 3 1 24 26 62 127 192 309 304
494 306 l74 0 -74 -48z m30 -67 c-69 -111 -166 -229 -268 -330 l-81 -80 -36
36 -36 36 63 74 c100 119 234 244 322 303 45 30 84 53 86 51 2 -3 -20 -43 -50
-90z m-2618 0 l36 -85 -41 -24 -42 -25 -60 20 c-48 17 -271 73 -373 95 -35 7
-16 18 89 50 108 34 208 52 290 53 l65 1 36 -85z m724 27 c128 -83 226 -165
339 -282 l98 -102 -28 -29 c-15 -16 -32 -29 -37 -29 -17 0 -234 188 -298 258
-82 89 -191 242 -172 242 5 0 49 -26 98 -58z m96 -2 c93 -47 174 -108 255
-191 91 -95 133 -157 114 -169 -10 -6 -41 20 -109 92 -108 114 -201 192 -316
267 -44 29 -82 54 -84 57 -10 10 79 -26 140 -56z m2710 45 c46 -8 111 -23 144
-34 l60 -19 -70 -1 c-85 -1 -225 -23 -318 -50 -63 -18 -68 -19 -62 -3 4 9 16
41 27 70 l21 52 57 0 c32 0 95 -7 141 -15z m-2807 -171 c57 -71 155 -165 328
-314 l30 -26 -33 -52 c-17 -29 -37 -52 -42 -52 -31 0 -161 92 -232 164 -120
121 -175 245 -175 391 l0 70 29 -48 c15 -27 58 -87 95 -133z m1995 31 c2 -214
-92 -402 -254 -507 -46 -30 -62 -36 -68 -26 -4 7 -23 40 -42 72 -34 57 -35 59
-16 72 146 103 269 266 332 441 11 32 23 65 26 73 10 25 21 -37 22 -125z m-83
17 c-57 -135 -151 -262 -259 -350 -35 -28 -67 -52 -70 -52 -3 0 -8 7 -11 16
-5 12 23 47 97 123 108 111 173 191 227 279 18 29 34 51 37 49 2 -3 -7 -32
-21 -65z m1174 30 c23 -9 19 -13 -75 -74 -102 -65 -213 -132 -274 -162 l-33
-18 7 40 c6 37 4 42 -27 65 -18 13 -57 37 -85 53 -29 16 -53 32 -53 35 0 8
130 45 205 58 33 6 71 13 85 15 41 7 223 -1 250 -12z m-3264 0 c6 -4 14 -47
18 -97 3 -49 9 -102 12 -117 l6 -27 -68 24 c-136 47 -227 60 -417 60 -198 0
-196 -1 -77 60 82 41 167 72 250 89 69 15 258 21 276 8z m2479 -7 c66 -14 220
-64 213 -70 -2 -1 -39 4 -83 12 -101 18 -227 10 -335 -21 l-80 -23 0 53 c0 32
5 54 13 57 27 11 206 6 272 -8z m-3312 -55 c84 -21 165 -43 181 -49 l29 -12
-32 -27 -33 -27 15 -65 c9 -36 21 -78 27 -94 6 -16 9 -31 6 -33 -14 -14 -227
121 -308 196 -54 49 -128 140 -128 156 0 11 78 -3 243 -45z m4092 -35 c-47
-106 -147 -254 -213 -318 l-30 -28 -72 30 c-40 17 -78 31 -86 31 -17 0 -17 -4
1 56 14 48 16 50 112 99 53 28 142 80 197 117 56 36 104 67 108 67 4 1 -4 -24
-17 -54z m-3160 -130 c38 -77 176 -217 263 -265 101 -56 97 -53 83 -89 -17
-39 -32 -39 -112 1 -91 45 -189 146 -234 240 -37 78 -65 187 -64 253 0 39 1
39 18 -20 9 -33 30 -87 46 -120z m2491 144 c86 -12 247 -66 238 -80 -3 -5 -20
-9 -37 -9 -51 -1 -193 -35 -307 -75 -100 -36 -108 -37 -165 -26 -33 6 -80 13
-106 17 l-45 6 11 51 c5 29 13 57 17 63 14 22 184 60 280 63 20 0 71 -4 114
-10z m-3466 -176 c30 -22 88 -60 129 -83 l75 -43 -51 -23 c-90 -39 -86 -40
-138 18 -54 60 -105 134 -155 223 l-33 60 59 -56 c32 -30 84 -73 114 -96z
m675 67 c82 -17 195 -52 195 -61 0 -5 -15 -9 -33 -9 -17 0 -46 -4 -64 -9 -24
-7 -51 -3 -115 15 -45 13 -143 34 -216 48 -74 13 -137 27 -140 31 -10 11 313
-3 373 -15z m1570 -10 c208 -66 353 -190 441 -375 46 -96 64 -172 71 -290 24
-438 -294 -775 -732 -775 -326 0 -583 171 -692 461 -45 120 -60 243 -45 366
41 321 253 558 566 629 93 21 301 13 391 -16z m-1735 -40 c52 -11 115 -26 140
-33 l45 -14 -52 -23 c-29 -12 -53 -27 -53 -32 0 -5 7 -23 16 -39 8 -17 13 -33
11 -36 -8 -7 -187 86 -273 143 -120 79 -121 83 -16 67 48 -8 130 -23 182 -33z
m3199 46 c-53 -48 -367 -251 -375 -243 -3 3 4 23 15 46 12 22 21 45 21 50 0 6
-19 18 -42 29 l-42 18 60 23 c87 34 272 80 323 81 24 0 42 -2 40 -4z m-3203
-197 c129 -64 136 -68 173 -125 21 -32 48 -68 59 -78 12 -11 22 -22 22 -26 0
-4 -23 -22 -52 -40 l-51 -34 -65 35 c-160 85 -299 244 -357 408 l-14 41 75
-57 c42 -31 136 -87 210 -124z m3213 90 c-27 -99 -95 -240 -153 -316 -51 -67
-151 -163 -170 -163 -6 0 -32 21 -56 46 -25 25 -64 58 -88 74 l-43 28 93 48
c125 65 227 144 340 263 51 54 94 98 95 97 2 -1 -7 -36 -18 -77z m-109 -25
c-47 -47 -115 -108 -153 -136 -65 -49 -214 -138 -229 -138 -7 0 32 56 75 110
7 8 51 37 97 63 47 26 128 79 180 116 52 38 99 70 105 70 5 1 -29 -38 -75 -85z
m-2653 -24 c21 -44 38 -80 37 -80 -1 0 -49 16 -107 35 -59 19 -136 40 -172 46
-36 7 -62 16 -58 20 21 18 161 52 245 58 11 1 29 -24 55 -79z m2233 57 l55
-11 -55 -9 c-30 -4 -82 -14 -115 -22 -33 -8 -61 -12 -63 -11 -2 2 4 20 12 41
15 36 16 36 63 30 27 -3 73 -11 103 -18z m115 -45 l40 -7 -112 -68 c-167 -101
-235 -130 -319 -137 l-72 -5 69 73 c38 39 69 77 69 83 0 15 66 40 145 54 81
15 124 17 180 7z m-2549 -42 c180 -45 259 -78 317 -131 l51 -46 -60 5 c-32 2
-86 -1 -118 -7 -58 -11 -61 -10 -121 24 -34 19 -85 55 -114 81 -55 49 -98 104
-83 104 6 0 63 -13 128 -30z m2535 -82 c-23 -40 -58 -90 -77 -110 l-34 -38
-84 29 -84 28 90 44 c49 24 120 63 156 86 37 23 69 40 71 38 2 -3 -15 -37 -38
-77z m-2947 -117 l45 -70 -57 -6 c-203 -21 -387 -74 -580 -165 -122 -59 -122
-59 -105 -29 36 61 161 196 240 259 102 82 173 125 276 166 l82 34 27 -60 c15
-33 47 -91 72 -129z m-3 101 c52 -67 152 -150 232 -192 34 -18 64 -34 66 -36
2 -2 -14 -19 -35 -39 -35 -33 -40 -35 -62 -23 -42 22 -156 154 -200 230 -47
83 -83 167 -57 133 8 -11 34 -44 56 -73z m3558 8 c76 -41 214 -146 276 -211
53 -55 48 -55 -25 -3 -100 71 -282 144 -395 159 -27 3 -60 8 -72 11 l-22 4 26
59 26 60 64 -24 c36 -14 90 -38 122 -55z m-3090 -80 c22 -13 41 -27 41 -31 0
-4 -16 -13 -35 -19 -33 -11 -36 -10 -67 26 -37 41 -88 115 -88 127 0 4 24 -12
54 -37 29 -24 72 -54 95 -66z m3009 -11 c167 -38 330 -130 452 -253 35 -36 61
-66 57 -66 -4 0 -39 9 -79 20 -88 23 -230 46 -353 55 -84 7 -93 10 -150 50
-33 23 -85 55 -115 70 -30 15 -57 29 -58 30 -2 2 14 30 37 63 40 60 41 60 83
55 24 -3 80 -13 126 -24z m-2617 -38 c93 -35 93 -35 73 -115 -15 -60 -19 -67
-38 -62 -138 33 -336 32 -469 -3 -43 -11 -116 -38 -163 -60 l-85 -40 23 32
c88 125 254 235 403 267 62 14 194 4 256 -19z m1809 19 c81 -13 193 -65 271
-126 32 -26 58 -49 56 -50 -2 -2 -33 12 -68 31 -120 63 -282 82 -433 50 -38
-8 -70 -14 -71 -12 -11 15 -23 73 -17 79 11 11 126 36 167 37 17 1 59 -4 95
-9z m-2473 -236 c-7 -6 -79 -19 -162 -28 -82 -9 -178 -22 -212 -29 -35 -8 -63
-10 -63 -5 0 16 162 136 232 172 l70 36 73 -68 c57 -51 71 -70 62 -78z m3142
82 c31 -19 74 -50 96 -70 l40 -35 -60 24 c-69 27 -197 55 -252 55 l-37 0 43
44 44 45 35 -14 c19 -8 60 -30 91 -49z m-3402 20 c-31 -19 -69 -44 -83 -55
-15 -12 -37 -21 -49 -21 -36 0 -191 -29 -329 -61 -70 -17 -130 -28 -132 -26
-8 8 219 104 319 136 105 34 227 59 291 60 l40 1 -57 -34z m2904 5 c36 -11 92
-38 125 -60 57 -37 128 -100 121 -107 -2 -2 -35 3 -73 12 -85 19 -359 29 -475
17 l-87 -9 -7 51 c-3 27 -9 60 -11 72 -5 18 0 23 33 32 103 27 275 23 374 -8z
m-1963 -82 c88 -24 41 -33 -179 -34 -202 -2 -248 -6 -419 -41 l-25 -5 25 15
c32 20 168 64 234 76 66 12 308 5 364 -11z m2412 -8 c73 -17 160 -49 209 -78
l46 -27 -43 -12 c-45 -14 -210 -38 -326 -49 l-70 -7 17 26 c23 35 22 42 -18
96 -35 47 -35 49 -16 62 21 15 109 10 201 -11z m-3532 -52 c-27 -23 -48 -48
-48 -57 0 -9 17 -33 38 -55 l37 -38 -80 7 c-108 9 -287 39 -355 60 l-55 17
135 34 c136 34 318 71 355 72 15 0 9 -9 -27 -40z m3947 10 c87 -11 238 -44
262 -58 16 -9 -152 -52 -355 -91 -142 -28 -145 -27 -89 21 26 22 47 48 47 57
0 9 -17 34 -37 55 l-38 38 65 -6 c36 -4 101 -11 145 -16z m-2872 -5 l77 -7 0
-42 0 -42 -145 -13 c-179 -16 -404 -9 -505 15 -88 21 -83 24 66 56 163 34 349
46 507 33z m-677 -29 c-22 -34 -21 -41 19 -95 33 -44 34 -48 17 -63 -42 -39
-344 34 -436 106 -19 14 -16 15 35 26 65 14 226 39 289 44 102 8 94 10 76 -18z
m2857 -10 c47 -11 73 -21 65 -26 -7 -4 -74 -19 -148 -34 -102 -21 -177 -28
-308 -32 l-173 -6 3 54 3 54 60 6 c117 13 415 3 498 -16z m-3602 -85 c73 -19
300 -50 364 -50 21 0 62 -21 130 -65 55 -36 110 -68 122 -71 13 -4 23 -8 23
-11 0 -2 -18 -31 -40 -63 l-40 -60 -48 6 c-234 28 -440 134 -602 309 -33 36
-34 37 -10 31 14 -4 59 -16 101 -26z m856 13 c77 -19 387 -24 550 -10 l91 8 5
-28 c3 -15 8 -44 12 -64 l5 -37 -82 -22 c-223 -61 -446 -24 -592 98 -45 37
-75 72 -62 72 3 0 35 -8 73 -17z m2769 9 c-7 -11 -128 -58 -201 -77 -74 -20
-239 -30 -329 -20 -55 5 -67 10 -64 23 3 15 26 18 178 23 159 6 307 25 385 48
17 5 31 10 33 10 2 1 1 -3 -2 -7z m474 -7 c-25 -31 -173 -136 -232 -166 l-59
-30 -74 68 c-51 46 -71 70 -65 78 6 7 67 17 137 24 71 7 157 18 193 26 36 7
76 13 89 14 20 1 22 -1 11 -14z m345 -30 c-165 -80 -453 -163 -531 -153 -22 3
-16 9 53 53 68 44 88 52 163 63 47 7 150 27 230 46 80 18 152 34 160 34 8 0
-25 -19 -75 -43z m-765 29 c0 -4 -21 -32 -47 -62 -91 -106 -243 -197 -371
-222 -105 -21 -283 6 -273 41 2 8 12 41 21 73 l17 60 169 0 c189 1 264 16 399
81 74 35 85 39 85 29z m837 -77 c-131 -170 -323 -316 -499 -376 l-56 -19 -26
60 c-15 33 -46 91 -70 128 l-45 69 67 6 c181 18 372 72 562 159 63 29 117 51
119 49 2 -1 -21 -36 -52 -76z m-4048 23 c64 -25 179 -50 227 -50 19 0 34 -4
34 -8 0 -4 -17 -25 -39 -46 l-38 -38 -59 30 c-75 38 -204 132 -181 132 1 0 26
-9 56 -20z m397 -76 c27 -26 68 -60 92 -76 l42 -29 -87 -44 c-119 -60 -242
-155 -352 -272 -102 -106 -101 -107 -54 37 47 145 143 294 245 384 29 25 55
46 58 46 4 0 28 -21 56 -46z m2842 0 c84 -74 172 -199 217 -309 19 -46 15 -43
-50 43 -57 76 -153 158 -238 202 -34 18 -63 34 -65 36 -4 3 71 73 78 74 3 0
29 -21 58 -46z m-2641 -59 c116 -30 238 -20 442 36 9 3 18 -8 24 -30 13 -41 3
-50 -92 -83 -91 -31 -229 -31 -321 1 -74 26 -157 74 -215 126 l-40 36 73 -36
c39 -19 98 -42 129 -50z m-1006 8 c81 -58 231 -122 336 -144 54 -12 110 -24
124 -27 l27 -7 -25 -57 -25 -56 -56 19 c-130 45 -294 153 -402 265 -58 60 -54
61 21 7z m3569 -31 c156 -88 289 -243 344 -400 l14 -40 -81 59 c-45 33 -140
88 -212 124 -115 57 -133 69 -153 105 -13 23 -40 60 -60 82 -29 32 -33 42 -22
48 8 5 31 20 50 34 39 28 53 27 120 -12z m-2498 -76 l68 -22 -72 -35 c-39 -19
-110 -57 -157 -86 -47 -28 -88 -50 -90 -48 -7 8 69 132 110 178 29 34 46 46
58 41 9 -3 46 -16 83 -28z m457 -28 c17 -34 30 -62 29 -63 -57 -33 -152 -113
-214 -177 -105 -113 -141 -175 -220 -383 -23 -62 -31 165 -9 270 29 137 117
274 223 347 43 30 124 67 149 68 6 0 25 -28 42 -62z m1874 22 c34 -37 87 -113
87 -125 0 -3 -25 15 -55 40 -31 25 -74 54 -95 65 -22 11 -40 24 -40 28 0 7 41
28 61 31 4 1 23 -17 42 -39z m-2518 -31 c-37 -50 -62 -71 -133 -111 -48 -28
-130 -81 -182 -118 -52 -37 -97 -66 -99 -64 -9 9 155 165 231 222 60 44 210
132 225 132 2 0 -17 -28 -42 -61z m2101 13 c79 -51 150 -132 191 -217 36 -76
63 -185 62 -250 0 -39 -1 -39 -18 20 -42 144 -139 272 -272 361 -38 25 -69 47
-69 49 0 11 35 75 40 75 4 0 33 -17 66 -38z m343 -19 c71 -42 149 -109 182
-155 l22 -30 -34 7 c-217 43 -355 94 -421 154 l-50 46 68 -3 c38 -2 87 1 109
6 22 6 45 10 50 11 6 1 39 -16 74 -36z m-2075 -35 c-28 -29 -62 -69 -77 -89
-21 -30 -37 -39 -89 -52 -91 -22 -171 -30 -225 -22 l-48 7 25 20 c42 34 192
120 270 154 57 26 89 34 135 34 l59 0 -50 -52z m1672 -40 c27 -18 83 -66 124
-107 114 -115 170 -241 170 -385 l0 -69 -48 74 c-68 104 -154 200 -265 297
-53 46 -103 89 -112 96 -16 11 -13 18 25 69 24 31 46 57 50 57 3 0 29 -14 56
-32z m-1343 0 c2 -7 -43 -57 -100 -112 -118 -112 -196 -205 -272 -321 -64 -98
-65 -98 -47 -49 59 167 196 346 351 458 55 39 61 42 68 24z m-1245 -52 c46
-19 85 -36 87 -38 7 -6 -25 -98 -34 -98 -12 0 -224 -121 -309 -176 -45 -30
-85 -54 -87 -54 -11 0 90 189 133 250 37 52 120 151 126 150 0 0 38 -15 84
-34z m482 29 c0 -3 -9 -24 -21 -46 -25 -50 -21 -64 26 -79 28 -9 34 -15 24
-21 -27 -17 -225 -77 -294 -88 -105 -18 -115 -19 -115 -12 1 7 210 154 300
210 64 39 80 46 80 36z m3307 -37 c61 -67 193 -265 193 -291 0 -2 -30 24 -66
60 -65 64 -211 167 -272 192 -18 7 -32 16 -32 20 0 5 115 58 131 60 4 1 24
-18 46 -41z m-857 -6 c52 -17 123 -36 158 -43 34 -7 62 -16 62 -21 0 -14 -179
-57 -246 -58 -7 0 -30 36 -52 81 -22 44 -35 78 -29 76 7 -2 55 -18 107 -35z
m-1632 -2 l23 -29 -101 -120 c-56 -67 -135 -151 -175 -188 -77 -70 -225 -176
-233 -168 -7 7 95 164 166 254 71 89 266 281 285 280 6 0 22 -13 35 -29z
m2014 -25 c80 -41 227 -135 248 -160 11 -13 9 -14 -16 -10 -16 3 -92 17 -169
31 -164 29 -259 54 -248 64 4 4 25 13 46 20 47 15 53 29 33 69 -9 16 -16 32
-16 35 0 8 38 -8 122 -49z m366 -47 c102 -59 221 -155 281 -229 28 -35 51 -68
51 -72 0 -5 -21 -6 -47 -2 -58 8 -336 78 -377 94 l-29 12 33 27 33 28 -21 79
c-11 44 -24 89 -28 99 -10 25 5 20 104 -36z m-1176 -20 c118 -99 243 -233 302
-321 30 -45 53 -84 51 -86 -8 -7 -176 104 -258 170 -45 37 -120 105 -166 152
l-84 85 34 31 c19 17 37 31 41 31 4 0 40 -28 80 -62z m-1702 47 c0 -3 -7 -21
-15 -41 l-14 -35 -63 7 c-35 4 -81 12 -103 19 l-40 12 62 7 c34 4 84 14 110
21 57 16 63 17 63 10z m640 -83 c0 -26 -98 -162 -164 -227 -122 -121 -241
-174 -391 -175 l-70 0 47 28 c121 70 298 237 434 410 l39 49 52 -40 c29 -22
53 -42 53 -45z m-780 1 l106 -16 -11 -51 c-5 -28 -13 -56 -17 -62 -12 -18
-154 -53 -243 -60 -98 -8 -235 14 -331 52 -68 28 -71 44 -7 44 42 0 243 53
318 84 33 13 64 25 69 25 6 1 57 -7 116 -16z m1784 -91 c116 -113 195 -177
284 -232 29 -18 51 -34 49 -37 -7 -6 -117 42 -179 78 -85 50 -176 129 -239
207 -55 68 -64 92 -37 92 6 0 61 -49 122 -108z m911 36 c183 -31 181 -39 -10
-34 -139 4 -187 9 -265 29 -92 24 -150 44 -140 47 3 1 34 7 70 14 58 10 73 9
145 -12 44 -13 134 -32 200 -44z m-3309 2 c-6 -38 -4 -41 32 -68 22 -15 60
-39 85 -52 26 -14 47 -28 47 -31 0 -7 -115 -42 -200 -61 -69 -16 -318 -17
-343 -2 -16 9 -8 18 65 66 74 49 307 187 317 188 2 0 1 -18 -3 -40z m1454 25
c17 -9 30 -18 30 -21 0 -4 -14 -35 -31 -70 -46 -97 -134 -186 -233 -234 -84
-42 -191 -70 -261 -69 -39 0 -38 1 22 18 155 44 290 154 378 305 28 47 54 85
58 86 4 0 21 -7 37 -15z m817 -27 c103 -143 266 -261 453 -329 l65 -23 -45 -9
c-124 -23 -328 14 -433 79 -83 52 -166 148 -204 236 -12 26 -11 27 50 57 34
16 67 30 73 30 6 1 24 -18 41 -41z m793 -34 c65 -14 128 -19 268 -19 154 0
180 -2 165 -13 -38 -29 -172 -91 -253 -117 -75 -25 -101 -28 -225 -29 l-140
-1 -6 80 c-3 44 -9 99 -13 122 l-7 41 63 -23 c35 -12 101 -31 148 -41z m-1427
-64 c-5 -30 -8 -118 -8 -195 1 -161 18 -240 85 -382 34 -73 36 -82 18 -72 -39
21 -163 154 -197 212 -98 166 -115 335 -50 486 l20 48 70 -21 70 -21 -8 -55z
m446 44 c20 -44 41 -146 41 -199 0 -107 -52 -238 -137 -347 -25 -32 -48 -58
-50 -58 -2 0 13 32 32 70 19 39 42 96 50 127 19 74 19 220 -1 308 -23 101 -23
108 6 116 41 12 46 10 59 -17z m-384 -192 c1 -143 6 -223 18 -292 10 -52 20
-106 22 -120 8 -42 -52 92 -70 156 -36 132 -27 454 14 454 14 0 16 -21 16
-198z m292 141 c13 -43 18 -93 18 -188 0 -153 -20 -234 -83 -330 -42 -65 -100
-131 -107 -123 -3 3 2 36 12 74 17 71 24 351 13 529 l-5 80 55 6 c30 3 60 6
67 7 7 1 20 -24 30 -55z m-175 7 c5 -19 11 -120 14 -225 6 -186 -6 -331 -35
-406 -8 -22 -9 -21 -21 21 -43 158 -71 443 -56 583 l8 68 41 -3 c38 -3 42 -6
49 -38z m-1127 -108 c-4 -12 -27 -14 -143 -10 -119 5 -150 9 -235 37 -55 18
-97 34 -95 37 2 2 44 -2 92 -8 99 -13 230 -2 326 29 l55 18 3 -44 c2 -24 1
-50 -3 -59z m3139 10 c54 -11 100 -23 103 -25 7 -8 -101 -46 -192 -68 -44 -11
-123 -23 -175 -26 l-95 -5 -36 86 -36 86 41 23 41 22 126 -36 c69 -20 169 -46
223 -57z m-3454 -21 c30 -7 65 -14 78 -17 21 -4 20 -8 -31 -72 -121 -151 -214
-323 -286 -527 l-39 -110 -8 50 c-5 28 -9 131 -9 230 1 205 17 297 79 430 l35
75 63 -24 c35 -13 88 -29 118 -35z m1052 1 c-2 -32 1 -85 7 -117 11 -57 10
-60 -24 -120 -37 -67 -109 -152 -157 -186 l-29 -21 7 38 c32 181 95 352 152
416 24 26 45 48 45 48 1 0 1 -26 -1 -58z m864 -80 c25 -17 33 -33 48 -92 23
-95 30 -187 19 -230 l-10 -35 -52 80 c-29 44 -73 122 -99 174 -37 76 -47 108
-52 168 l-6 73 61 -58 c33 -33 74 -68 91 -80z m1119 66 c55 -121 77 -224 81
-383 l4 -140 -14 72 c-30 154 -90 294 -179 412 -26 35 -47 64 -45 65 3 3 111
44 116 45 2 1 18 -32 37 -71z m-3282 -21 l-26 -67 -65 0 c-66 0 -227 29 -297
53 -39 14 -38 14 75 20 77 4 152 15 225 34 61 16 111 28 112 28 2 -1 -9 -31
-24 -68z m3153 -22 c59 -77 137 -238 164 -340 23 -87 40 -315 23 -315 -5 0
-28 33 -51 74 -42 74 -127 188 -214 288 -39 45 -48 63 -57 118 -7 36 -21 96
-32 134 -11 37 -18 70 -15 73 5 6 117 31 128 29 4 0 28 -28 54 -61z m-2576 21
c0 -7 -22 -38 -49 -69 -57 -65 -121 -148 -180 -231 l-41 -59 0 55 c0 67 21
183 47 258 l19 55 95 5 c103 5 109 5 109 -14z m2276 -65 c30 -41 70 -104 88
-140 34 -66 70 -171 62 -179 -12 -11 -342 238 -340 256 0 4 13 9 29 12 32 5
42 27 44 91 1 20 4 38 7 41 17 17 59 -14 110 -81z m93 61 c16 -29 49 -163 56
-228 l7 -59 -44 85 c-23 47 -64 113 -90 147 -27 34 -48 64 -48 67 0 3 25 6 55
6 42 0 56 -4 64 -18z m-1804 -132 c-18 -58 -39 -133 -46 -167 -7 -35 -16 -63
-21 -63 -17 0 -68 243 -54 257 6 6 149 78 153 78 1 -1 -13 -48 -32 -105z
m-555 54 c0 -28 10 -34 83 -43 48 -6 52 -8 49 -31 -4 -30 -30 -53 -141 -127
-78 -52 -245 -123 -258 -109 -14 13 243 350 259 340 4 -3 8 -16 8 -30z m-280
-66 c-16 -78 -24 -96 -78 -170 -34 -46 -97 -141 -141 -212 -45 -72 -81 -127
-81 -124 0 4 14 46 31 95 43 120 107 256 164 344 48 75 115 163 120 157 1 -2
-5 -42 -15 -90z m1853 -202 c14 -22 24 -42 22 -44 -8 -8 -148 78 -187 113
l-38 35 28 83 27 83 60 -115 c33 -64 73 -134 88 -155z m103 259 l35 -14 -7
-63 c-4 -34 -12 -82 -19 -107 l-12 -46 -7 65 c-6 58 -16 106 -32 163 -6 21 -3
21 42 2z m170 -47 c7 -4 22 -45 35 -90 29 -106 32 -280 6 -378 -23 -87 -58
-173 -67 -163 -3 4 -12 45 -18 91 -6 45 -32 146 -58 223 -44 133 -46 143 -36
192 6 29 14 75 17 103 l6 50 52 -10 c29 -6 57 -14 63 -18z m-1472 -47 c-47
-135 -58 -214 -59 -409 0 -204 1 -202 -62 -77 -71 140 -103 267 -103 410 0 51
3 100 6 109 5 12 21 16 68 17 33 0 79 4 101 8 78 16 76 19 49 -58z m1751 -17
c50 -42 128 -102 174 -135 l84 -59 -59 0 c-67 0 -220 30 -276 53 l-37 15 -3
96 c-3 87 1 103 22 105 3 0 46 -34 95 -75z m-139 40 c4 -14 4 -78 1 -142 -4
-94 -11 -135 -36 -212 -17 -52 -36 -102 -42 -110 -9 -12 -10 -11 -4 5 33 101
26 310 -14 428 l-20 57 54 0 c50 0 55 -2 61 -26z m-1566 -27 c0 -17 4 -46 9
-63 7 -23 3 -51 -14 -110 -12 -43 -32 -135 -45 -204 -31 -177 -39 -186 -39
-45 -1 137 16 267 49 378 24 81 40 99 40 44z m339 -23 c13 -36 13 -37 -25 -68
-46 -38 -116 -86 -127 -86 -4 0 12 24 37 54 24 29 54 72 66 95 13 22 26 41 30
41 3 0 12 -16 19 -36z m-629 -60 c0 -54 -1 -55 -37 -71 -42 -17 -204 -53 -243
-53 -17 0 5 15 65 45 50 24 115 64 145 89 30 24 58 45 63 45 4 1 7 -24 7 -55z
m689 -46 l34 -52 -34 -64 c-85 -160 -244 -299 -409 -357 l-41 -14 44 57 c55
70 133 206 170 294 25 58 35 70 85 101 31 19 68 47 81 61 14 14 27 26 30 26 3
0 21 -24 40 -52z m-1096 -99 c12 -1 40 -1 62 0 l40 2 -45 -41 c-81 -73 -224
-177 -294 -216 -59 -32 -67 -34 -57 -16 29 55 182 294 222 348 l44 59 3 -67
c3 -62 5 -68 25 -69z m1666 64 c58 -119 123 -205 247 -330 133 -134 133 -132
-6 -86 -154 50 -307 150 -394 257 l-38 45 61 70 c33 39 65 79 71 91 6 11 14
20 18 20 4 0 23 -30 41 -67z m96 -10 c7 -5 34 -44 59 -89 25 -44 79 -129 121
-188 41 -59 75 -111 75 -114 0 -13 -143 134 -200 204 -62 78 -121 170 -145
228 l-15 36 45 -35 c25 -19 52 -38 60 -42z m1089 -88 c56 -72 159 -235 152
-242 -5 -6 -280 167 -361 227 l-70 52 60 -5 c33 -2 66 -2 73 0 8 3 12 26 12
66 l0 62 40 -45 c22 -25 64 -76 94 -115z m-2104 62 c15 -47 29 -53 70 -32 18
9 34 14 37 12 7 -8 -86 -187 -143 -273 -58 -88 -85 -118 -79 -87 2 10 11 63
20 118 22 139 66 319 75 308 4 -4 13 -25 20 -46z m-335 8 c3 -14 7 -37 10 -52
3 -16 8 -35 11 -44 10 -34 -194 -162 -333 -210 -30 -10 -91 -25 -135 -34 -84
-16 -248 -21 -248 -7 0 4 26 22 58 39 83 46 185 120 276 201 75 66 83 70 150
82 39 6 96 20 126 30 74 24 79 24 85 -5z m1575 -32 c44 -118 99 -363 81 -363
-16 0 -257 367 -248 377 3 2 24 -5 47 -17 51 -26 65 -22 80 24 6 20 13 36 15
36 2 0 13 -26 25 -57z m480 -81 c122 -82 371 -197 495 -228 l30 -7 -30 -9
c-16 -4 -79 -12 -138 -17 -192 -17 -394 15 -544 84 l-73 34 24 63 c20 55 31
96 52 196 5 23 6 22 57 -21 29 -24 86 -67 127 -95z m-50 103 c30 -8 67 -15 81
-15 15 0 64 -28 124 -71 55 -38 150 -102 212 -141 62 -38 113 -72 113 -74 0
-2 -39 10 -87 27 -173 61 -330 144 -458 244 -65 50 -64 51 15 30z m-1235 -32
c19 -21 35 -41 35 -45 0 -15 -118 -132 -174 -173 -61 -42 -143 -87 -194 -106
-26 -9 -26 -8 -7 6 140 105 211 183 267 292 18 34 34 63 35 63 2 0 18 -17 38
-37z m94 -194 c6 -64 18 -158 27 -208 9 -51 13 -95 11 -98 -9 -9 -135 159
-172 229 l-36 68 68 75 c52 57 71 71 80 62 6 -7 16 -64 22 -128z m205 62 c-17
-148 -50 -262 -101 -350 -25 -43 -26 -44 -35 -21 -11 30 -44 243 -53 339 l-7
74 26 -16 c35 -23 44 -21 96 18 41 31 46 32 62 18 13 -12 16 -26 12 -62z
m-994 -79 c0 -10 -157 -73 -225 -91 -101 -26 -290 -44 -330 -32 l-30 9 28 1
c106 3 337 98 451 185 l59 45 24 -57 c12 -31 23 -58 23 -60z m1064 49 l38 -38
-30 -59 c-30 -59 -120 -189 -127 -182 -2 1 8 36 22 77 14 41 30 112 36 158 6
46 14 83 17 83 3 0 23 -17 44 -39z m-455 -151 c22 -185 89 -402 180 -582 21
-43 36 -78 34 -78 -3 0 -42 29 -87 64 -175 137 -300 302 -370 487 l-25 66 62
27 c34 15 91 46 127 70 36 24 66 43 67 42 0 -1 6 -44 12 -96z m571 60 l60 -40
-6 -48 c-17 -144 -75 -304 -153 -423 -47 -70 -179 -214 -189 -205 -2 3 3 26
12 53 21 63 52 254 61 370 l7 92 64 98 c36 53 67 108 70 120 4 13 8 23 11 23
2 0 31 -18 63 -40z m-1145 -27 l20 -37 -33 -116 c-18 -63 -44 -164 -57 -223
-13 -60 -25 -111 -28 -113 -7 -8 -46 100 -68 191 -11 44 -23 123 -26 176 l-6
96 49 17 c27 9 65 25 84 36 40 21 37 22 65 -27z m1704 -38 c37 -124 54 -249
47 -358 -8 -146 -12 -147 -88 -31 -56 85 -124 200 -167 283 -13 23 -12 23 27
16 39 -6 42 -5 69 33 16 21 40 60 53 85 14 26 28 47 31 47 3 0 16 -34 28 -75z
m89 33 l52 -21 0 -64 c0 -66 -29 -227 -53 -298 -13 -38 -14 -37 -20 75 -4 77
-16 152 -35 228 -25 96 -27 112 -13 107 9 -4 40 -16 69 -27z m-1141 -78 c43
-66 50 -86 61 -160 7 -47 28 -154 47 -239 19 -85 33 -156 31 -158 -6 -6 -86
178 -121 278 -37 106 -75 274 -75 330 0 39 -3 42 57 -51z m672 -48 c-45 -130
-153 -294 -265 -402 -60 -58 -61 -54 -7 21 75 105 163 337 163 431 0 55 6 58
70 31 l58 -25 -19 -56z m-1136 20 c53 14 97 23 97 21 0 -29 -133 -233 -199
-305 -49 -54 -140 -128 -156 -128 -4 0 -4 21 0 48 8 55 78 333 95 376 l11 29
27 -33 28 -33 97 25z m1271 -4 c2 -2 26 -48 55 -103 29 -55 82 -144 118 -199
35 -54 63 -100 61 -102 -6 -6 -173 82 -235 124 -33 23 -84 63 -113 89 l-51 48
29 70 c16 39 32 78 35 87 6 16 10 16 53 3 25 -7 47 -15 48 -17z m-1129 -78
l26 -65 -52 -48 c-57 -53 -133 -106 -224 -157 l-60 -33 56 59 c70 75 125 150
179 242 23 41 43 72 45 70 2 -2 15 -32 30 -68z m495 -80 c8 0 31 17 52 37 l39
38 -6 -75 c-12 -146 -66 -423 -80 -408 -5 5 -73 299 -85 368 -6 36 -13 79 -16
95 l-6 30 44 -42 c24 -24 50 -43 58 -43z"/>
</g>
</svg>